<?xml version="1.0" standalone="no"?>
<!DOCTYPE svg PUBLIC "-//W3C//DTD SVG 20010904//EN"
 "http://www.w3.org/TR/2001/REC-SVG-20010904/DTD/svg10.dtd">
<svg version="1.0" xmlns="http://www.w3.org/2000/svg"
 width="752.000000pt" height="752.000000pt" viewBox="0 0 752.000000 752.000000"
 preserveAspectRatio="xMidYMid meet">
<metadata>
Created by potrace 1.14, written by Peter Selinger 2001-2017
</metadata>
<g transform="translate(0.000000,752.000000) scale(0.100000,-0.100000)"
fill="#000000" stroke="none">
<path d="M29 6831 l-29 -29 0 -254 c0 -139 3 -263 6 -274 7 -28 42 -44 72 -33
13 5 35 23 49 40 15 17 31 36 37 43 14 15 69 78 127 147 26 29 57 66 70 80 13
14 38 43 56 65 17 21 50 59 73 84 59 65 73 95 59 123 -7 12 -17 25 -23 29 -6
4 -114 8 -239 8 l-229 0 -29 -29z"/>
<path d="M1270 6851 c-65 -20 -110 -56 -185 -146 -22 -27 -54 -65 -71 -84 -17
-20 -53 -61 -79 -91 -26 -30 -59 -68 -74 -85 -14 -16 -53 -61 -85 -100 -33
-38 -63 -72 -66 -75 -3 -3 -18 -21 -34 -40 -37 -46 -133 -156 -169 -194 -15
-16 -40 -45 -55 -64 -15 -19 -34 -42 -42 -51 -9 -9 -43 -47 -75 -86 -33 -38
-62 -72 -65 -75 -3 -3 -34 -39 -69 -80 -35 -41 -68 -76 -72 -78 -5 -2 -9 -7
-9 -11 0 -5 -15 -24 -32 -43 -18 -19 -44 -57 -58 -84 l-25 -49 -3 -1495 c-2
-1059 0 -1506 8 -1533 7 -25 23 -45 48 -62 35 -23 45 -24 187 -24 83 0 158 0
168 0 18 0 455 0 485 0 9 0 74 -1 145 -1 118 -1 129 -3 154 -25 l28 -23 0
-759 c1 -821 -2 -783 56 -817 24 -14 91 -16 613 -16 488 0 592 2 621 14 35 15
106 82 153 145 15 20 34 43 43 51 9 8 52 58 95 110 43 52 89 106 102 120 13
14 31 37 40 52 9 16 22 28 29 28 7 0 13 4 13 8 0 5 19 31 43 58 23 28 60 72
81 98 21 26 51 60 65 75 14 16 42 48 60 71 19 23 40 48 46 54 5 6 46 54 90
106 71 84 119 140 150 174 6 6 30 36 55 66 25 30 52 62 60 70 8 9 31 35 50 59
19 23 45 54 58 69 13 15 37 44 55 66 18 21 37 44 44 51 14 14 69 79 133 155
25 30 56 66 70 81 14 15 39 45 55 65 17 21 44 53 62 73 28 33 116 135 201 237
65 77 117 138 137 160 11 12 38 44 60 70 22 26 69 82 105 124 36 41 78 91 94
110 26 33 67 80 161 189 22 26 61 71 86 101 26 30 78 91 115 136 38 44 89 104
114 134 25 30 53 61 63 69 9 9 17 19 17 23 0 4 10 18 23 30 29 31 105 119 217
253 51 61 100 118 109 127 9 9 21 23 26 30 17 22 134 160 188 222 29 32 59 68
67 80 8 11 26 32 40 46 14 14 32 35 41 47 8 12 42 52 74 89 120 137 128 142
165 114 l24 -18 1 -544 c1 -562 -1 -591 -41 -677 -18 -39 -35 -62 -94 -131
-21 -25 -70 -83 -110 -130 -39 -47 -81 -96 -94 -110 -12 -14 -44 -52 -71 -85
-28 -32 -57 -66 -65 -76 -8 -9 -24 -27 -34 -40 -17 -22 -44 -54 -110 -129 -12
-14 -44 -52 -71 -85 -28 -33 -52 -62 -55 -65 -3 -3 -30 -34 -60 -70 -30 -36
-64 -74 -75 -86 -11 -12 -30 -34 -42 -51 -12 -16 -33 -41 -45 -55 -31 -34 -63
-72 -122 -143 -28 -33 -58 -67 -68 -76 -10 -9 -18 -21 -18 -28 0 -6 -4 -11 -9
-11 -23 0 -77 -116 -86 -185 -10 -71 -7 -1419 3 -1445 5 -14 20 -34 32 -45 21
-19 38 -20 608 -23 323 -1 593 1 602 4 8 4 21 8 29 10 15 3 56 38 84 72 10 12
24 28 31 35 12 12 338 392 426 497 25 29 52 61 60 69 16 16 158 183 196 230
10 13 26 31 35 40 13 14 161 186 211 246 9 11 29 34 43 50 62 70 104 133 119
178 14 43 16 195 16 1501 0 1412 -1 1454 -19 1477 l-19 24 -564 0 c-509 0
-566 2 -589 17 -14 9 -26 25 -27 35 -1 10 -2 383 -3 828 -1 446 -5 819 -9 831
-22 57 8 54 -608 54 -545 -1 -652 -6 -652 -31 0 -5 -3 -8 -7 -7 -21 7 -105
-79 -208 -210 -5 -7 -17 -21 -26 -30 -9 -9 -51 -60 -94 -112 -43 -52 -83 -100
-89 -106 -6 -7 -19 -23 -30 -38 -10 -14 -30 -38 -45 -54 -14 -15 -42 -48 -63
-72 -51 -62 -162 -196 -207 -250 -21 -25 -108 -128 -192 -230 -173 -208 -186
-224 -214 -256 -11 -12 -31 -37 -45 -54 -14 -17 -33 -41 -44 -53 -10 -12 -35
-42 -55 -67 -20 -25 -38 -47 -42 -50 -3 -3 -27 -32 -55 -65 -61 -74 -86 -104
-99 -119 -6 -6 -30 -36 -55 -66 -25 -30 -47 -57 -50 -60 -3 -3 -37 -43 -75
-90 -38 -47 -72 -87 -75 -90 -3 -3 -27 -32 -55 -65 -27 -33 -54 -65 -60 -71
-5 -6 -23 -28 -40 -49 -16 -21 -35 -43 -40 -49 -6 -6 -46 -54 -89 -106 -43
-52 -101 -122 -130 -154 -28 -32 -55 -66 -60 -75 -5 -9 -15 -20 -21 -26 -6 -5
-45 -50 -86 -100 -87 -105 -102 -123 -126 -151 -10 -12 -34 -41 -53 -64 -72
-87 -263 -317 -300 -360 -31 -37 -154 -184 -238 -285 -238 -287 -318 -382
-327 -390 -6 -5 -16 -17 -21 -27 -5 -9 -25 -34 -44 -55 -20 -21 -51 -58 -70
-82 -19 -24 -46 -56 -59 -70 -12 -14 -44 -52 -70 -83 -38 -48 -51 -58 -77 -58
-67 0 -65 -28 -68 641 -3 667 -4 659 60 754 18 28 48 66 66 85 19 19 76 84
128 145 131 152 144 166 156 179 5 6 32 36 58 66 110 126 162 185 184 207 12
13 22 26 22 28 0 3 15 20 33 39 38 41 63 70 137 156 30 35 69 79 85 97 17 18
35 38 40 45 9 12 141 164 203 233 58 65 108 131 122 160 12 25 14 155 16 787
l1 757 -24 25 -24 26 -597 -1 c-328 0 -608 -4 -622 -8z"/>
<path d="M7435 1277 c-11 -5 -30 -24 -45 -41 -14 -16 -34 -40 -45 -52 -11 -12
-36 -41 -57 -65 -20 -24 -44 -53 -55 -65 -290 -332 -288 -329 -250 -374 16
-19 31 -20 251 -20 l233 0 27 26 26 27 0 267 c0 242 -2 268 -17 282 -27 22
-47 27 -68 15z"/>
</g>
</svg>
