<svg width="27" height="27" viewBox="0 0 27 27" fill="none" xmlns="http://www.w3.org/2000/svg">
<path d="M17.7759 24.2544H9.63357C8.81893 24.2426 8.03876 23.9238 7.44907 23.3616C6.85938 22.7994 6.50363 22.0354 6.45296 21.2222L5.48817 6.549C5.48323 6.44262 5.49942 6.33631 5.53582 6.23622C5.57221 6.13613 5.62809 6.04425 5.70021 5.96589C5.77452 5.88468 5.86448 5.81933 5.96469 5.77379C6.0649 5.72824 6.17328 5.70342 6.28333 5.70084H21.1262C21.2352 5.7006 21.3431 5.72278 21.4432 5.76601C21.5433 5.80925 21.6335 5.87261 21.7081 5.95215C21.7826 6.0317 21.84 6.12573 21.8767 6.22841C21.9134 6.33108 21.9286 6.44021 21.9213 6.549L20.999 21.2222C20.9478 22.0426 20.586 22.8127 19.9874 23.376C19.3887 23.9392 18.5979 24.2533 17.7759 24.2544ZM7.1739 7.29114L7.99026 21.1268C8.01723 21.544 8.2022 21.9353 8.50751 22.2209C8.81281 22.5065 9.2155 22.665 9.63357 22.6641H17.7759C18.1933 22.6625 18.5946 22.5031 18.8993 22.218C19.2041 21.9329 19.3898 21.5431 19.4193 21.1268L20.278 7.34416L7.1739 7.29114Z" fill="#F10000"/>
<path d="M23.246 7.29114H4.16234C3.95145 7.29114 3.7492 7.20737 3.60008 7.05825C3.45096 6.90913 3.36719 6.70688 3.36719 6.49599C3.36719 6.2851 3.45096 6.08285 3.60008 5.93373C3.7492 5.78461 3.95145 5.70084 4.16234 5.70084H23.246C23.4569 5.70084 23.6592 5.78461 23.8083 5.93373C23.9574 6.08285 24.0412 6.2851 24.0412 6.49599C24.0412 6.70688 23.9574 6.90913 23.8083 7.05825C23.6592 7.20737 23.4569 7.29114 23.246 7.29114Z" fill="#F10000"/>
<path d="M16.8849 7.29114H10.5237C10.3136 7.28839 10.113 7.20374 9.96445 7.05521C9.81592 6.90668 9.73126 6.70602 9.72852 6.49598V4.58762C9.74196 4.04354 9.96408 3.52546 10.3489 3.14062C10.7338 2.75579 11.2518 2.53366 11.7959 2.52022H15.6127C16.1658 2.53405 16.6916 2.76354 17.0779 3.15971C17.4641 3.55587 17.6802 4.08732 17.68 4.64063V6.49598C17.6773 6.70602 17.5926 6.90668 17.4441 7.05521C17.2956 7.20374 17.0949 7.28839 16.8849 7.29114ZM11.3188 5.70083H16.0897V4.64063C16.0897 4.51409 16.0395 4.39274 15.95 4.30327C15.8605 4.2138 15.7392 4.16353 15.6127 4.16353H11.7959C11.6694 4.16353 11.548 4.2138 11.4586 4.30327C11.3691 4.39274 11.3188 4.51409 11.3188 4.64063V5.70083Z" fill="#F10000"/>
<path d="M16.885 20.0136C16.675 20.0108 16.4743 19.9262 16.3258 19.7777C16.1772 19.6291 16.0926 19.4285 16.0898 19.2184V10.7368C16.0898 10.5259 16.1736 10.3237 16.3227 10.1745C16.4719 10.0254 16.6741 9.94165 16.885 9.94165C17.0959 9.94165 17.2981 10.0254 17.4473 10.1745C17.5964 10.3237 17.6802 10.5259 17.6802 10.7368V19.2184C17.6774 19.4285 17.5927 19.6291 17.4442 19.7777C17.2957 19.9262 17.095 20.0108 16.885 20.0136Z" fill="#F10000"/>
<path d="M10.5237 20.0136C10.3136 20.0108 10.113 19.9262 9.96445 19.7777C9.81592 19.6291 9.73126 19.4285 9.72852 19.2184V10.7368C9.72852 10.5259 9.81229 10.3237 9.96141 10.1745C10.1105 10.0254 10.3128 9.94165 10.5237 9.94165C10.7346 9.94165 10.9368 10.0254 11.0859 10.1745C11.235 10.3237 11.3188 10.5259 11.3188 10.7368V19.2184C11.3161 19.4285 11.2314 19.6291 11.0829 19.7777C10.9344 19.9262 10.7337 20.0108 10.5237 20.0136Z" fill="#F10000"/>
<path d="M13.7043 20.0136C13.4943 20.0108 13.2936 19.9262 13.1451 19.7777C12.9966 19.6291 12.9119 19.4285 12.9092 19.2184V10.7368C12.9092 10.5259 12.993 10.3237 13.1421 10.1745C13.2912 10.0254 13.4934 9.94165 13.7043 9.94165C13.9152 9.94165 14.1175 10.0254 14.2666 10.1745C14.4157 10.3237 14.4995 10.5259 14.4995 10.7368V19.2184C14.4967 19.4285 14.4121 19.6291 14.2636 19.7777C14.115 19.9262 13.9144 20.0108 13.7043 20.0136Z" fill="#F10000"/>
</svg>
