<svg width="26" height="26" viewBox="0 0 26 26" fill="none" xmlns="http://www.w3.org/2000/svg">
<g clip-path="url(#clip0_134_829)">
<path d="M12.544 25.4119C12.22 25.4119 11.9092 25.2832 11.6801 25.054C11.451 24.8249 11.3223 24.5142 11.3223 24.1901V1.61251C11.3223 1.28849 11.451 0.977734 11.6801 0.748615C11.9092 0.519496 12.22 0.390778 12.544 0.390778C12.868 0.390778 13.1788 0.519496 13.4079 0.748615C13.637 0.977734 13.7657 1.28849 13.7657 1.61251V24.1901C13.7657 24.5142 13.637 24.8249 13.4079 25.054C13.1788 25.2832 12.868 25.4119 12.544 25.4119Z" fill="white"/>
<path d="M23.8316 14.123H1.25396C0.929936 14.123 0.619183 13.9943 0.390064 13.7652C0.160945 13.5361 0.0322266 13.2253 0.0322266 12.9013C0.0322266 12.5773 0.160945 12.2665 0.390064 12.0374C0.619183 11.8083 0.929936 11.6796 1.25396 11.6796H23.8316C24.1556 11.6796 24.4664 11.8083 24.6955 12.0374C24.9246 12.2665 25.0533 12.5773 25.0533 12.9013C25.0533 13.2253 24.9246 13.5361 24.6955 13.7652C24.4664 13.9943 24.1556 14.123 23.8316 14.123Z" fill="white"/>
</g>
<defs>
<clipPath id="clip0_134_829">
<rect width="25.0211" height="25.0211" fill="white" transform="translate(0.03125 0.390747)"/>
</clipPath>
</defs>
</svg>
