<svg width="26" height="27" viewBox="0 0 26 27" fill="none" xmlns="http://www.w3.org/2000/svg">
<path d="M4.13986 6.65845L3.73608 4.96674C3.62457 4.46193 3.16529 4.11105 2.64895 4.1363C1.97732 4.16835 1.50415 4.80837 1.67158 5.45956L2.72764 9.83287C2.86473 10.4006 3.43501 10.7505 4.0032 10.6156L8.37861 9.56776C9.75632 9.23357 9.25521 7.16717 7.8775 7.50124L5.77366 8.00849C7.23015 6.1692 9.3765 4.884 11.8988 4.61468C16.8867 4.08206 21.3387 7.67975 21.8714 12.6676C21.9859 14.1213 24.1815 13.8846 23.9835 12.44C23.3701 6.69564 18.4801 2.41793 12.2519 2.47687C8.59552 2.83831 5.93762 4.40708 4.13986 6.65857V6.65845ZM17.3303 17.1755C15.8959 17.4693 16.4135 19.6287 17.8252 19.2401L19.927 18.7327C18.4705 20.5714 16.3244 21.8511 13.8018 22.1204C8.81394 22.653 4.36395 19.0636 3.83133 14.0757C3.78025 13.5205 3.30785 13.0996 2.75042 13.1128C2.12407 13.1289 1.64819 13.6818 1.72541 14.3035C2.37972 20.4309 7.90018 24.8889 14.0275 24.2346C17.1103 23.9057 19.7651 22.3317 21.5628 20.0829L21.9728 21.7767C22.231 23.2595 24.4725 22.7228 24.0311 21.2839L22.9813 16.9085C22.8619 16.4038 22.395 16.0595 21.7875 16.1102L17.3303 17.1755Z" fill="white"/>
</svg>
