<svg xmlns="http://www.w3.org/2000/svg" viewBox="0 0 301.57 46.58"><g id="Слой_2" data-name="Слой 2"><g id="Camada_1" data-name="Camada 1"><path d="M50.28.05q-16.48,0-33,0H16.1v0a20.25,20.25,0,0,0-5.59.9C3.1,3.36.82,8.46.21,12.31c-.8,5.1.67,9.44,4.25,12.55a15.89,15.89,0,0,0,10.26,3.92c4.45.09,9,.08,13.32.07,2.6,0,5.22,0,7.82,0a21.74,21.74,0,0,1,3.8.32,3.17,3.17,0,0,1,2.11,1.19,2.62,2.62,0,0,1-.72,3.57A6.76,6.76,0,0,1,36.77,35H0V46.5H35.86a23.87,23.87,0,0,0,5.55-.42,16.68,16.68,0,0,0,8.22-4,13.88,13.88,0,0,0,4.24-11.77,12.9,12.9,0,0,0-6.45-10.36,17.57,17.57,0,0,0-9.07-2.52c-4.93-.05-9.93,0-14.77,0H18.51a13.91,13.91,0,0,1-5.13-.59A2.42,2.42,0,0,1,11.78,15a2.26,2.26,0,0,1,.83-2.14A6.41,6.41,0,0,1,17.1,11.5H50.38a3.16,3.16,0,0,0,.63-.05h2.92V.06H50.28Z"/><rect x="114.94" width="11.34" height="46.5"/><path d="M149.15,8.92V.05H129.62V11.49h19a11.6,11.6,0,0,0-.16,1.57V46.41h11.4V11.49h21V.05h-19.4A13,13,0,0,0,149.15,8.92Z"/><path d="M204.42.06a26.62,26.62,0,0,0-9.73,1.77,20.94,20.94,0,0,0-11.25,10A25.26,25.26,0,0,0,181.27,28c1.84,10.91,10.25,18,22,18.44,1.85.07,3.71.09,5.55.09l27.24,0V35c-2.68,0-29.53,0-32.21,0a12.9,12.9,0,0,1-3.63-.52,10,10,0,0,1-7.63-8.18,20.53,20.53,0,0,1-.25-4.19,10.16,10.16,0,0,1,1.39-5c2.1-3.61,5.33-5.41,9.88-5.5,2.75,0,29.68-.06,32.45-.07V.06h-31.6Z"/><path d="M100.91.05c0,2.31,0,32.64,0,35-1,0-2,0-3,0a2.16,2.16,0,0,1-2-1.3c-1.8-3.41-3.57-6.84-5.34-10.27-1.14-2.2-2.27-4.4-3.41-6.59-.47-.89-.92-1.79-1.37-2.68-1.21-2.41-2.47-4.89-3.93-7.27A14.13,14.13,0,0,0,70.27.1C67.91,0,65.55,0,63.27,0l-2,0V0H56.55V5.9c0,9.13,0,36.58,0,40.68H67.91V15.07c0-1.19,0-2.38,0-3.59,1,0,2,0,2.88.07A2.42,2.42,0,0,1,73,13c.92,1.73,1.81,3.46,2.7,5.2l1.24,2.4,2.76,5.35c2.16,4.22,4.4,8.59,6.7,12.85a14.36,14.36,0,0,0,11.81,7.69c1.37.11,2.73.14,4.08.14,1.07,0,2.13,0,3.17,0s2,0,3.06,0h3.8V42.91c0-4.95,0-37.91,0-42.86Z"/><path d="M294.27,23.37V.06H282.9c0,1,0,16.36,0,17.3H260.57c-7.44,0-10.07,7.45-10.07,7.45V17.37h0c0-1,0-16.34,0-17.31H239.14c0,6.72,0,35.57,0,46.51H250.5c0-.93,0-16.83,0-17.76q16.22,0,32.43,0c0,.92,0,16.82,0,17.75h11.36V23.37Z"/><path d="M298.56.05a3,3,0,1,0,3,3A3,3,0,0,0,298.56.05Zm0,5.49A2.48,2.48,0,1,1,301,3.06,2.49,2.49,0,0,1,298.56,5.54Z"/><path d="M299.75,3.09a1,1,0,0,0,.17-.57,1,1,0,0,0-.34-.75,1.27,1.27,0,0,0-.87-.29h-1.29v3h.64V3.57h.53l.75.94h.77l-.83-1A1,1,0,0,0,299.75,3.09Zm-.64-.24a.7.7,0,0,1-.42.13h-.63V2.07h.63a.7.7,0,0,1,.42.12.42.42,0,0,1,.17.33A.4.4,0,0,1,299.11,2.85Z"/></g></g></svg>