<svg xmlns="http://www.w3.org/2000/svg" viewBox="0 0 188.18 154.99"><g id="Слой_2" data-name="Слой 2"><g id="Camada_1" data-name="Camada 1"><path d="M186.46,44.13h-27a1.86,1.86,0,0,1-1.86-1.86V2a2,2,0,0,0-2-2H129a7.22,7.22,0,0,0-5.52,2.58L33.52,110.27a1.57,1.57,0,0,1-2.77-1l-.13-28.46A8.72,8.72,0,0,1,32.77,75L62,41.59a6,6,0,0,0,1.49-4V2a2,2,0,0,0-2-2h-28a6.47,6.47,0,0,0-4.89,2.23L1.91,33.1A7.8,7.8,0,0,0,0,38.21v72.57A3.24,3.24,0,0,0,3.24,114H28.65a2,2,0,0,1,2,2V152.2A2.79,2.79,0,0,0,33.4,155H61.08a5,5,0,0,0,3.76-1.74L155.06,47.44a1.39,1.39,0,0,1,2.45.9l.05,25.1a10.44,10.44,0,0,1-2.1,6.52l-27.74,32.63a9,9,0,0,0-2.13,5.81v33.82a2.77,2.77,0,0,0,2.77,2.77h27.22a5.08,5.08,0,0,0,3.83-1.76l26.93-31.41a7.59,7.59,0,0,0,1.84-5v-71A1.72,1.72,0,0,0,186.46,44.13Z"/><path d="M185.51,139.91l-10.86,12.56A1.52,1.52,0,0,0,175.8,155h10.28a2.1,2.1,0,0,0,2.1-2.1v-12A1.52,1.52,0,0,0,185.51,139.91Z"/><path d="M2.67,15.08,13.53,2.52A1.52,1.52,0,0,0,12.38,0H2.27A2.27,2.27,0,0,0,0,2.27V14.08A1.52,1.52,0,0,0,2.67,15.08Z"/></g></g></svg>