<svg xmlns="http://www.w3.org/2000/svg" viewBox="0 0 332.44 59.01"><g id="Слой_2" data-name="Слой 2"><g id="Camada_1" data-name="Camada 1"><path d="M39.23,11.37q-12.85,0-25.72,0h-.95v0a16.43,16.43,0,0,0-4.36.71C2.42,14,.64,17.93.17,20.94a10.23,10.23,0,0,0,3.31,9.79,12.46,12.46,0,0,0,8,3.06c3.48.07,7,.06,10.4.05,2,0,4.07,0,6.1,0a16.63,16.63,0,0,1,3,.25A2.45,2.45,0,0,1,32.6,35,2,2,0,0,1,32,37.8a5.24,5.24,0,0,1-3.34.84H0v9H28a18.64,18.64,0,0,0,4.33-.32,13,13,0,0,0,6.42-3.16A10.83,10.83,0,0,0,42,35a10.07,10.07,0,0,0-5-8.09,13.68,13.68,0,0,0-7.08-2c-3.84,0-7.75,0-11.52,0h-4a11,11,0,0,1-4-.45A1.91,1.91,0,0,1,9.19,23a1.79,1.79,0,0,1,.65-1.68,5,5,0,0,1,3.5-1c5.71,0,11.41,0,17.12,0h8.86a3.74,3.74,0,0,0,.49,0h2.27V11.37H39.23Z"/><rect x="89.69" y="11.33" width="8.85" height="36.29"/><path d="M116.39,18.29V11.36H101.15v8.93h14.79a10,10,0,0,0-.12,1.23v26h8.9V20.29h16.39V11.36H126A10.12,10.12,0,0,0,116.39,18.29Z"/><path d="M163.08,11.38h-3.56a20.85,20.85,0,0,0-7.6,1.37,16.32,16.32,0,0,0-8.78,7.84,19.68,19.68,0,0,0-1.69,12.62c1.43,8.51,8,14,17.14,14.38,1.44.06,2.89.08,4.33.08l21.25,0v-9l-25.13,0a10.77,10.77,0,0,1-2.84-.41,7.84,7.84,0,0,1-5.95-6.39,15.8,15.8,0,0,1-.19-3.26,7.84,7.84,0,0,1,1.08-3.93,8.41,8.41,0,0,1,7.71-4.29c2.15-.05,23.16-.06,25.32-.07v-8.9Z"/><path d="M78.75,11.36V38.64c-.82,0-1.6,0-2.37,0a1.69,1.69,0,0,1-1.53-1q-2.1-4-4.17-8Q69.36,27,68,24.43L67,22.34C66,20.46,65,18.52,63.89,16.66a11,11,0,0,0-9.06-5.25c-1.84-.11-3.68-.09-5.46-.06H47.78v0H44.13v4.6c0,7.12,0,28.55,0,31.75H53V23.09c0-.93,0-1.86,0-2.8.78,0,1.53,0,2.25.05a1.9,1.9,0,0,1,1.68,1.1q1.07,2,2.1,4l1,1.87,2.15,4.18c1.69,3.29,3.44,6.7,5.23,10a11.21,11.21,0,0,0,9.21,6c1.07.08,2.14.11,3.19.11.84,0,1.66,0,2.48,0s1.59,0,2.39,0h3v-2.8c0-3.86,0-29.58,0-33.45Z"/><path d="M229.63,32.28V11.37h-8.87V24.88H203.33c-5.81,0-7.86,5.82-7.86,5.82V24.89h0V11.37h-8.86c0,5.24,0,27.76,0,36.3h8.87V33.81h25.3c0,.73,0,13.14,0,13.86h8.87C229.63,46.44,229.62,33.52,229.63,32.28Z"/><path d="M234.91,11.36a2.35,2.35,0,1,0,2.35,2.35A2.36,2.36,0,0,0,234.91,11.36Zm0,4.29a1.94,1.94,0,1,1,1.94-1.94A1.93,1.93,0,0,1,234.91,15.65Z"/><path d="M235.84,13.74a.76.76,0,0,0,.13-.44.72.72,0,0,0-.27-.59,1,1,0,0,0-.67-.23h-1v2.37h.5v-.74h.41l.59.74h.6l-.65-.82A.83.83,0,0,0,235.84,13.74Zm-.5-.19a.52.52,0,0,1-.33.1h-.49v-.71H235a.52.52,0,0,1,.33.1.29.29,0,0,1,.13.26A.3.3,0,0,1,235.34,13.55Z"/><path d="M331.78,16.8h-10.4a.71.71,0,0,1-.71-.71V.75a.75.75,0,0,0-.75-.75H309.67a2.81,2.81,0,0,0-2.13,1L273,42a.6.6,0,0,1-1.06-.38l-.05-10.83a3.31,3.31,0,0,1,.83-2.2l11.23-12.74a2.25,2.25,0,0,0,.57-1.51V.75a.74.74,0,0,0-.75-.75H273a2.5,2.5,0,0,0-1.88.85L260.82,12.6a2.92,2.92,0,0,0-.74,2V42.18a1.24,1.24,0,0,0,1.25,1.23h9.77a.74.74,0,0,1,.75.75V58A1.07,1.07,0,0,0,272.93,59h10.64a2,2,0,0,0,1.45-.66l34.69-40.29a.54.54,0,0,1,.94.34l0,9.56a3.93,3.93,0,0,1-.81,2.48L309.19,42.87a3.38,3.38,0,0,0-.82,2.21V58A1.07,1.07,0,0,0,309.44,59h10.47a2,2,0,0,0,1.47-.67l10.35-12a2.88,2.88,0,0,0,.71-1.89v-27A.66.66,0,0,0,331.78,16.8Z"/><path d="M331.41,53.27l-4.17,4.78a.58.58,0,0,0,.44,1h3.95a.8.8,0,0,0,.81-.8V53.64A.59.59,0,0,0,331.41,53.27Z"/><path d="M261.11,5.74,265.29,1a.58.58,0,0,0-.45-1H261a.87.87,0,0,0-.88.86v4.5A.59.59,0,0,0,261.11,5.74Z"/></g></g></svg>